<svg width="2262" height="1671" viewBox="0 0 2262 1671" fill="none" xmlns="http://www.w3.org/2000/svg">
<g clip-path="url(#clip0_67_2)">
<path d="M1623.34 0H638.658C285.937 0 0 285.937 0 638.658V1623.34C0 1976.06 285.937 2262 638.658 2262H1623.34C1976.06 2262 2262 1976.06 2262 1623.34V638.658C2262 285.937 1976.06 0 1623.34 0Z" fill="#30AF7D"/>
<path fill-rule="evenodd" clip-rule="evenodd" d="M1170.09 571.526V2045.73C1170.09 2074.12 1207.48 2084.03 1221.67 2059.48L1640.46 1334.31L2110.84 519.712C1797.48 833.072 1383.42 940.979 1170.09 571.526ZM1520.16 913.27L1462.27 1269.88L1390.63 1327.1L1357.06 1241.72L1485.25 904.034L1463.17 875.874L1494.48 852.22C1501.47 854.473 1508.68 856.726 1515.88 858.979C1523.32 860.781 1530.53 862.358 1537.74 863.935L1553.06 900.204L1519.94 913.495L1520.16 913.27Z" fill="white"/>
<path fill-rule="evenodd" clip-rule="evenodd" d="M621.538 1334.54L151.16 519.712C464.52 833.072 878.578 940.979 1091.91 571.526V2045.73C1091.91 2074.12 1054.52 2084.03 1040.33 2059.48L621.538 1334.31V1334.54Z" fill="white"/>
<path d="M659.159 729.896C571.526 729.896 494.707 670.423 472.855 585.493C460.014 535.707 467.223 483.669 493.355 439.514C519.487 395.36 561.163 363.596 611.175 350.755C627.169 346.701 643.389 344.448 659.609 344.448C747.242 344.448 824.061 403.921 845.913 488.85C858.753 538.636 851.545 590.45 825.413 634.829C799.28 679.208 757.379 710.747 707.593 723.588C691.598 727.643 675.379 729.896 659.159 729.896Z" fill="white"/>
<path d="M659.384 345.574C746.566 345.574 822.709 404.596 844.561 489.075C871.144 591.125 809.418 695.879 707.368 722.461C691.598 726.516 675.379 728.544 659.159 728.544C571.977 728.544 495.833 669.521 473.982 585.043C461.141 535.482 468.35 484.119 494.256 439.965C520.163 395.811 561.614 364.497 611.175 351.656C626.944 347.601 643.164 345.574 659.384 345.574ZM659.384 342.871C643.164 342.871 626.944 344.898 610.499 349.178C506.872 375.986 444.47 481.866 471.278 585.719C494.031 673.126 572.653 731.022 658.933 731.022C675.153 731.022 691.373 728.994 707.818 724.714C811.445 697.906 873.847 592.026 847.039 488.174C824.286 400.767 745.665 342.871 659.384 342.871Z" fill="white"/>
<path d="M845.688 245.326L748.368 341.069C748.368 341.069 746.341 341.97 745.214 341.519C703.088 322.371 654.203 316.964 605.768 329.354C557.334 341.744 517.235 370.354 489.751 407.75C489.075 408.651 487.949 409.102 486.822 408.877L355.261 372.607C353.008 371.931 352.558 369.228 354.135 367.876L569.949 189.458C569.949 189.458 571.526 188.782 572.202 188.782L843.885 240.821C846.138 241.271 846.814 243.974 845.237 245.551L845.688 245.326Z" fill="white" stroke="white" stroke-width="0.12" stroke-miterlimit="10"/>
<path d="M826.99 261.095L840.281 312.458" stroke="white" stroke-width="0.65" stroke-linecap="round" stroke-linejoin="round"/>
<path d="M1615.68 679.208C1528.05 679.208 1451.23 619.735 1429.38 534.806C1402.8 431.855 1464.75 326.651 1567.47 299.843C1583.47 295.788 1599.69 293.535 1615.91 293.535C1703.54 293.535 1780.36 353.008 1802.21 437.937C1815.05 487.723 1807.84 539.762 1781.71 583.916C1755.58 628.071 1713.9 659.835 1663.89 672.675C1647.9 676.73 1631.68 678.983 1615.46 678.983L1615.68 679.208Z" fill="white"/>
<path d="M1615.91 294.887C1703.09 294.887 1779.23 353.909 1801.08 438.388C1827.67 540.438 1765.94 645.192 1663.89 671.774C1648.12 675.829 1631.9 677.857 1615.68 677.857C1528.5 677.857 1452.36 618.834 1430.5 534.356C1403.92 432.305 1465.65 327.552 1567.7 300.969C1583.47 296.914 1599.69 294.887 1615.91 294.887ZM1615.91 292.184C1599.69 292.184 1583.47 294.211 1567.02 298.491C1463.4 325.299 1400.99 431.179 1427.8 535.031C1450.55 622.439 1529.18 680.335 1615.46 680.335C1631.68 680.335 1647.9 678.307 1664.34 674.027C1767.97 647.219 1830.37 541.339 1803.56 437.487C1780.81 350.08 1702.19 292.184 1615.91 292.184Z" fill="white"/>
</g>
<defs>
<clipPath id="clip0_67_2">
<rect width="2262" height="1671" fill="white"/>
</clipPath>
</defs>
</svg>
