<?xml version="1.0" encoding="UTF-8"?><svg id="_Слой_2" xmlns="http://www.w3.org/2000/svg" viewBox="0 0 100.41 100.41"><defs><style>.cls-1{fill:#30af7d;}.cls-1,.cls-2,.cls-3{stroke-width:0px;}.cls-4{stroke-linecap:round;stroke-linejoin:round;stroke-width:.65px;}.cls-4,.cls-2,.cls-3,.cls-5{fill:#fff;}.cls-4,.cls-5{stroke:#fff;}.cls-3{fill-rule:evenodd;}.cls-5{stroke-miterlimit:10;stroke-width:.12px;}</style></defs><g id="_Слой_2-2"><rect class="cls-1" width="100.41" height="100.41" rx="28.35" ry="28.35"/><path class="cls-3" d="m51.94,25.37v65.44c0,1.26,1.66,1.7,2.29.61l18.59-32.19,20.88-36.16c-13.91,13.91-32.29,18.7-41.76,2.3Zm15.54,15.17h0s-2.57,15.83-2.57,15.83l-3.18,2.54-1.49-3.79,5.69-14.99h0s-.98-1.25-.98-1.25l1.39-1.05c.31.1.63.2.95.3.33.08.65.15.97.22l.68,1.61-1.47.59Z"/><path class="cls-3" d="m27.59,59.24L6.71,23.07c13.91,13.91,32.29,18.7,41.76,2.3v65.44c0,1.26-1.66,1.7-2.29.61l-18.59-32.19Z"/><path class="cls-2" d="m29.26,32.4c-3.89,0-7.3-2.64-8.27-6.41-.57-2.21-.25-4.52.91-6.48s3.01-3.37,5.23-3.94c.71-.18,1.43-.28,2.15-.28,3.89,0,7.3,2.64,8.27,6.41.57,2.21.25,4.51-.91,6.48s-3.02,3.37-5.23,3.94c-.71.18-1.43.28-2.15.28Z"/><path class="cls-2" d="m29.27,15.22v.12c3.87,0,7.25,2.62,8.22,6.37,1.18,4.53-1.56,9.18-6.09,10.36-.7.18-1.42.27-2.14.27-3.87,0-7.25-2.62-8.22-6.37-.57-2.2-.25-4.48.9-6.44s2.99-3.35,5.19-3.92c.7-.18,1.42-.27,2.14-.27v-.12m0,0c-.72,0-1.44.09-2.17.28-4.6,1.19-7.37,5.89-6.18,10.5,1.01,3.88,4.5,6.45,8.33,6.45.72,0,1.44-.09,2.17-.28,4.6-1.19,7.37-5.89,6.18-10.5-1.01-3.88-4.5-6.45-8.33-6.45h0Z"/><path class="cls-5" d="m37.54,10.89l-4.32,4.25s-.09.04-.14.02c-1.87-.85-4.04-1.09-6.19-.54s-3.93,1.82-5.15,3.48c-.03.04-.08.06-.13.05l-5.84-1.61c-.1-.03-.12-.15-.05-.21l9.58-7.92s.07-.03.1-.03l12.06,2.31c.1.02.13.14.06.21Z"/><line class="cls-4" x1="36.71" y1="11.59" x2="37.3" y2="13.87"/><path class="cls-2" d="m71.72,30.15c-3.89,0-7.3-2.64-8.27-6.41-1.18-4.57,1.57-9.24,6.13-10.43.71-.18,1.43-.28,2.15-.28,3.89,0,7.3,2.64,8.27,6.41.57,2.21.25,4.52-.91,6.48s-3.01,3.37-5.23,3.94c-.71.18-1.43.28-2.15.28Z"/><path class="cls-2" d="m71.73,13.09h0c3.87,0,7.25,2.62,8.22,6.37,1.18,4.53-1.56,9.18-6.09,10.36-.7.18-1.42.27-2.14.27-3.87,0-7.25-2.62-8.22-6.37-1.18-4.53,1.56-9.18,6.09-10.36.7-.18,1.42-.27,2.14-.27m0-.12c-.72,0-1.44.09-2.17.28-4.6,1.19-7.37,5.89-6.18,10.5,1.01,3.88,4.5,6.45,8.33,6.45.72,0,1.44-.09,2.17-.28,4.6-1.19,7.37-5.89,6.18-10.5-1.01-3.88-4.5-6.45-8.33-6.45h0Z"/></g></svg>